<svg width="17" height="16" viewBox="0 0 17 16" fill="none" xmlns="http://www.w3.org/2000/svg"><path fill-rule="evenodd" clip-rule="evenodd" d="M16.634.445c.474.543.42 1.367-.123 1.841L9.981 8l6.53 5.714a1.304 1.304 0 0 1-1.718 1.963L7.141 8.982a1.304 1.304 0 0 1 0-1.964L14.793.323a1.304 1.304 0 0 1 1.84.122Z" fill="#fff"/><path fill-rule="evenodd" clip-rule="evenodd" d="M.323.445a1.304 1.304 0 0 0 .122 1.841L6.975 8l-6.53 5.714a1.304 1.304 0 0 0 1.718 1.963l7.652-6.695a1.304 1.304 0 0 0 0-1.964L2.163.323a1.304 1.304 0 0 0-1.84.122Z" fill="#fff"/></svg>