<svg width="18" height="18" viewBox="0 0 18 18" fill="none" xmlns="http://www.w3.org/2000/svg"><path d="M9 1.5c-1.273 0-2.298 1.002-2.4 2.25H2.438a.563.563 0 1 0 0 1.125h.63l1.269 9.826A2.068 2.068 0 0 0 6.382 16.5h2.48a4.883 4.883 0 0 1-.81-1.125h-1.67a.94.94 0 0 1-.93-.817l-1.25-9.683h9.596l-.447 3.473c.381.077.744.203 1.087.364l.495-3.837h.63a.563.563 0 1 0 0-1.125H11.4C11.298 2.502 10.273 1.5 9 1.5Zm0 1.125c.664 0 1.182.489 1.275 1.125h-2.55c.093-.636.61-1.125 1.275-1.125ZM12.375 9a4.125 4.125 0 1 0 0 8.25 4.125 4.125 0 0 0 0-8.25Zm1.875 1.875a.38.38 0 0 1 .125.024c.015.005.028.013.042.02a.36.36 0 0 1 .098.066.37.37 0 0 1 .07.105c.005.01.011.02.015.032a.37.37 0 0 1 0 .256c-.004.012-.011.024-.017.035a.366.366 0 0 1-.068.102l-1.61 1.61 1.61 1.61a.37.37 0 0 1 .067.1c.006.013.014.025.019.039a.373.373 0 0 1 .024.126.38.38 0 0 1-.024.125c-.005.015-.013.028-.02.042a.364.364 0 0 1-.066.098.369.369 0 0 1-.105.07c-.01.005-.02.011-.032.015a.373.373 0 0 1-.256 0c-.012-.004-.024-.011-.035-.017a.368.368 0 0 1-.102-.068l-1.61-1.61-1.61 1.61a.367.367 0 0 1-.1.067c-.013.006-.026.014-.04.019a.373.373 0 0 1-.125.024.376.376 0 0 1-.125-.024c-.015-.005-.028-.013-.042-.02a.367.367 0 0 1-.098-.066.371.371 0 0 1-.07-.105c-.005-.01-.011-.02-.015-.032a.373.373 0 0 1 0-.256.162.162 0 0 1 .017-.035.368.368 0 0 1 .068-.102l1.61-1.61-1.61-1.61a.37.37 0 0 1-.067-.1c-.006-.013-.014-.025-.019-.039a.373.373 0 0 1-.024-.126.38.38 0 0 1 .024-.125c.005-.015.013-.028.02-.042a.367.367 0 0 1 .066-.098.376.376 0 0 1 .12-.08l.02-.006a.371.371 0 0 1 .11-.021l.024-.002a.377.377 0 0 1 .126.025c.007.002.013.007.02.01a.37.37 0 0 1 .11.074l1.61 1.61 1.61-1.61c.03-.03.065-.05.1-.067.013-.006.025-.014.039-.019a.373.373 0 0 1 .126-.024Z" fill="#FF5E54"/></svg>