<svg width="18" height="18" viewBox="0 0 18 18" fill="none" xmlns="http://www.w3.org/2000/svg"><path d="M13.5 1.879c-.673 0-1.346.255-1.856.765l-8.3 8.3a1.312 1.312 0 0 0-.334.568l-1.113 3.896a.563.563 0 0 0 .695.695l3.897-1.112v-.001c.214-.061.41-.175.567-.333l8.3-8.3a2.633 2.633 0 0 0 0-3.713A2.616 2.616 0 0 0 13.5 1.88Zm0 1.118c.383 0 .765.148 1.06.443a1.49 1.49 0 0 1 0 2.12l-.727.728-2.12-2.121.727-.727a1.495 1.495 0 0 1 1.06-.443Zm-2.583 1.965 2.12 2.122L6.26 13.86a.189.189 0 0 1-.081.048l-2.923.835.835-2.923a.184.184 0 0 1 .048-.082l6.778-6.777Z" fill="#53B051"/></svg>