<svg width="20" height="20" viewBox="0 0 20 20" fill="none" xmlns="http://www.w3.org/2000/svg"><path d="M17.28 2.078a.627.627 0 0 0-.068.006h-5.754a.626.626 0 1 0 0 1.25h4.325L9.35 9.767a.625.625 0 1 0 .883.883l6.434-6.433v4.325a.624.624 0 1 0 1.25 0V2.788a.626.626 0 0 0-.638-.71ZM5.207 3.334a3.134 3.134 0 0 0-3.125 3.125v8.333a3.134 3.134 0 0 0 3.125 3.125h8.334a3.134 3.134 0 0 0 3.125-3.125v-4.167a.624.624 0 0 0-1.205-.242.624.624 0 0 0-.045.242v4.167a1.865 1.865 0 0 1-1.875 1.875H5.208a1.865 1.865 0 0 1-1.875-1.875V6.459c0-1.044.832-1.875 1.875-1.875h4.167a.625.625 0 1 0 0-1.25H5.208Z" fill="#fff"/></svg>