<svg width="20" height="20" viewBox="0 0 20 20" fill="none" xmlns="http://www.w3.org/2000/svg"><path d="M6.875 2.083a4.801 4.801 0 0 0-4.792 4.792v6.25a4.801 4.801 0 0 0 4.792 4.792h6.25a4.801 4.801 0 0 0 4.792-4.792v-6.25a4.801 4.801 0 0 0-4.792-4.792h-6.25Zm0 1.25h6.25a3.533 3.533 0 0 1 3.542 3.542v6.25a3.533 3.533 0 0 1-3.542 3.542h-6.25a3.532 3.532 0 0 1-3.542-3.542v-6.25a3.532 3.532 0 0 1 3.542-3.542ZM14.167 5a.833.833 0 1 0 0 1.666.833.833 0 0 0 0-1.666ZM10 5.833A4.176 4.176 0 0 0 5.833 10 4.176 4.176 0 0 0 10 14.167 4.176 4.176 0 0 0 14.167 10 4.176 4.176 0 0 0 10 5.833Zm0 1.25A2.908 2.908 0 0 1 12.917 10 2.908 2.908 0 0 1 10 12.917 2.907 2.907 0 0 1 7.083 10 2.908 2.908 0 0 1 10 7.083Z" fill="#fff"/></svg>