<svg width="20" height="20" viewBox="0 0 20 20" fill="none" xmlns="http://www.w3.org/2000/svg"><path fill-rule="evenodd" clip-rule="evenodd" d="M9.974 0A10 10 0 1 0 20 9.994 10.013 10.013 0 0 0 9.974 0Zm0 18.955a8.958 8.958 0 1 1 8.978-8.961 8.97 8.97 0 0 1-8.978 8.956v.005Z" fill="#fff"/><path d="M14.132 9.349v-.816a3.627 3.627 0 0 0-1.1-2.598 3.747 3.747 0 0 0-2.638-1.082h-.671c-.987 0-1.935.388-2.636 1.082a3.615 3.615 0 0 0-1.098 2.598v.816l-.463.835v1.204a4.034 4.034 0 0 0 1.22 2.885c.786.77 1.842 1.2 2.942 1.2h.747a4.184 4.184 0 0 0 3.836-2.519 4.03 4.03 0 0 0 .32-1.566v-1.204l-.459-.835Zm-3.636 3.692v.963a.417.417 0 0 1-.193.356h-.182a.215.215 0 0 1-.065 0h-.043a.258.258 0 0 1-.054 0h-.082a.432.432 0 0 1-.2-.362v-.957a1.147 1.147 0 0 1 .433-2.216h.024a1.147 1.147 0 0 1 .433 2.216h-.071Zm1.967-3.666H7.656v-.842a2.007 2.007 0 0 1 .608-1.435 2.082 2.082 0 0 1 1.459-.604h.67a2.08 2.08 0 0 1 1.46.604 2.016 2.016 0 0 1 .608 1.435l.002.842Z" fill="#fff"/></svg>