<svg width="20" height="20" viewBox="0 0 20 20" fill="none" xmlns="http://www.w3.org/2000/svg"><path d="M15 2.083A2.926 2.926 0 0 0 12.083 5c0 .244.083.462.14.69L7.227 8.188C6.691 7.53 5.91 7.083 5 7.083A2.926 2.926 0 0 0 2.083 10 2.926 2.926 0 0 0 5 12.917c.909 0 1.691-.448 2.227-1.105l4.996 2.499c-.057.227-.14.445-.14.69A2.926 2.926 0 0 0 15 17.916 2.926 2.926 0 0 0 17.917 15 2.926 2.926 0 0 0 15 12.084c-.909 0-1.691.447-2.227 1.105l-4.996-2.5c.057-.227.14-.445.14-.689 0-.244-.083-.462-.14-.69l4.996-2.498c.536.657 1.318 1.105 2.227 1.105A2.926 2.926 0 0 0 17.917 5 2.926 2.926 0 0 0 15 2.083Zm0 1.25c.928 0 1.667.74 1.667 1.667 0 .928-.74 1.667-1.667 1.667A1.657 1.657 0 0 1 13.333 5c0-.928.739-1.667 1.667-1.667Zm-10 5c.928 0 1.667.74 1.667 1.667 0 .928-.74 1.667-1.667 1.667A1.657 1.657 0 0 1 3.333 10c0-.928.739-1.666 1.667-1.666Zm10 5c.928 0 1.667.74 1.667 1.667 0 .928-.74 1.667-1.667 1.667A1.657 1.657 0 0 1 13.333 15c0-.928.739-1.666 1.667-1.666Z" fill="#fff"/></svg>