<svg width="24" height="24" viewBox="0 0 24 24" fill="none" xmlns="http://www.w3.org/2000/svg"><path d="M12 2.4c-5.292 0-9.6 4.308-9.6 9.6s4.308 9.6 9.6 9.6 9.6-4.308 9.6-9.6a.8.8 0 0 0-.235-.566l-.118-.117a.787.787 0 0 0-.056-.056l-8.396-8.397a.8.8 0 0 0-.175-.175l-.054-.055A.8.8 0 0 0 12 2.4Zm-.764 1.697c-.02.232-.036.466-.036.703 0 .286.016.57.045.848a6.398 6.398 0 1 0 7.107 7.107c.278.03.561.045.848.045.237 0 .47-.016.703-.036C19.515 16.824 16.163 20 12 20c-4.428 0-8-3.573-8-8 0-4.163 3.177-7.515 7.236-7.903Zm1.581 1.051 6.035 6.035a6.375 6.375 0 0 1-6.035-6.035Z" fill="#fff"/></svg>