<svg width="20" height="20" viewBox="0 0 20 20" fill="none" xmlns="http://www.w3.org/2000/svg"><path d="M6.458 2.5a.625.625 0 0 0-.139.014 1.865 1.865 0 0 0-1.251.62.625.625 0 0 0-.096.103L2.46 6.538l-.002.004a1.875 1.875 0 0 0-.376 1.125v7.541c0 1.028.847 1.875 1.875 1.875H6.25v1.459a.625.625 0 0 0 .625.625h.905c.387 0 .758-.154 1.031-.428l1.656-1.656h2.105c.529 0 1.032-.223 1.387-.613l3.146-3.46h-.001a3.125 3.125 0 0 0 .813-2.102V4.375A1.885 1.885 0 0 0 16.042 2.5H6.458Zm0 1.25h9.584c.352 0 .625.272.625.625v6.533c0 .467-.174.917-.488 1.262l-1.058 1.163h-4.913a.625.625 0 0 0-.442.184l-.6.6v-.159a.625.625 0 0 0-.624-.625H5.833V4.375a.63.63 0 0 1 .091-.327l.043-.055a.626.626 0 0 0 .027-.039.62.62 0 0 1 .464-.204ZM4.583 5.812v7.73a1.05 1.05 0 0 0 1.042 1.041h2.292v1.042a.625.625 0 0 0 1.067.442l1.483-1.484h3.517l-.95 1.045a.624.624 0 0 1-.462.205h-2.364a.625.625 0 0 0-.442.184l-1.839 1.839a.208.208 0 0 1-.147.06H7.5v-1.458a.625.625 0 0 0-.625-.625H3.958a.616.616 0 0 1-.625-.625V7.667c0-.135.045-.267.126-.375l1.124-1.48Zm5.199.43a.625.625 0 0 0-.615.633v3.333a.625.625 0 1 0 1.25 0V6.875a.625.625 0 0 0-.635-.634Zm3.333 0a.625.625 0 0 0-.615.633v3.333a.624.624 0 1 0 1.25 0V6.875a.625.625 0 0 0-.635-.634Z" fill="#fff"/></svg>