<svg width="24" height="24" viewBox="0 0 24 24" fill="none" xmlns="http://www.w3.org/2000/svg">
<path d="M11.9998 0.799805C11.8744 0.79998 11.7508 0.829627 11.639 0.886352C11.5272 0.943078 11.4303 1.02529 11.3561 1.12637C11.348 1.13659 11.3402 1.14701 11.3326 1.15762C9.44372 3.58826 4.7998 11.2186 4.7998 15.1998C4.7998 19.1766 8.023 22.3998 11.9998 22.3998C15.9766 22.3998 19.1998 19.1766 19.1998 15.1998C19.1998 11.2231 14.5662 3.60815 12.6732 1.16855C12.673 1.16828 12.6735 1.16727 12.6732 1.16699C12.6638 1.15314 12.6539 1.13959 12.6436 1.12637C12.5694 1.02529 12.4724 0.943078 12.3606 0.886352C12.2488 0.829627 12.1252 0.79998 11.9998 0.799805ZM7.1998 14.3998C7.6422 14.3998 7.9998 14.7574 7.9998 15.1998C7.9998 16.8878 9.07179 18.4022 10.667 18.967C11.083 19.1142 11.3009 19.5705 11.1529 19.9873C11.0369 20.3153 10.7294 20.5201 10.3998 20.5201C10.3118 20.5201 10.2206 20.506 10.1326 20.4748C7.89982 19.6852 6.3998 17.5646 6.3998 15.1998C6.3998 14.7574 6.7574 14.3998 7.1998 14.3998Z" fill="white"/>
</svg>
