<svg width="17" height="16" viewBox="0 0 17 16" fill="none" xmlns="http://www.w3.org/2000/svg">
<path fill-rule="evenodd" clip-rule="evenodd" d="M16.6337 0.445446C17.1081 0.987579 17.0531 1.81162 16.511 2.28598L9.9807 8L16.511 13.714C17.0531 14.1884 17.1081 15.0124 16.6337 15.5546C16.1593 16.0967 15.3353 16.1516 14.7932 15.6773L7.14102 8.98162C6.85795 8.73394 6.69559 8.37612 6.69559 8C6.69559 7.62388 6.85795 7.26606 7.14102 7.01838L14.7932 0.322743C15.3353 -0.151624 16.1593 -0.0966879 16.6337 0.445446Z" fill="white"/>
<path fill-rule="evenodd" clip-rule="evenodd" d="M0.322772 0.445446C-0.151595 0.987579 -0.0966587 1.81162 0.445475 2.28598L6.97578 8L0.445475 13.714C-0.0966587 14.1884 -0.151595 15.0124 0.322772 15.5546C0.797139 16.0967 1.62117 16.1516 2.16331 15.6773L9.81547 8.98162C10.0985 8.73394 10.2609 8.37612 10.2609 8C10.2609 7.62388 10.0985 7.26606 9.81547 7.01838L2.16331 0.322743C1.62117 -0.151624 0.797139 -0.0966879 0.322772 0.445446Z" fill="white"/>
</svg>
