<svg width="18" height="18" viewBox="0 0 18 18" fill="none" xmlns="http://www.w3.org/2000/svg">
<path d="M8.99996 1.5C7.72682 1.5 6.70193 2.5016 6.60054 3.75H2.43745C2.36292 3.74895 2.28891 3.76272 2.21974 3.79051C2.15057 3.81831 2.08762 3.85957 2.03453 3.91191C1.98145 3.96425 1.9393 4.02661 1.91053 4.09538C1.88176 4.16415 1.86694 4.23795 1.86694 4.3125C1.86694 4.38705 1.88176 4.46085 1.91053 4.52962C1.9393 4.59839 1.98145 4.66075 2.03453 4.71309C2.08762 4.76543 2.15057 4.80669 2.21974 4.83449C2.28891 4.86228 2.36292 4.87605 2.43745 4.875H3.06734L4.33589 14.7012C4.46827 15.7264 5.34805 16.5 6.38155 16.5H8.86226C8.54163 16.1666 8.26893 15.7886 8.05293 15.375H6.38081C5.91094 15.375 5.51175 15.0234 5.45137 14.5576L4.20186 4.875H13.7973L13.3498 8.34814C13.7312 8.42539 14.0936 8.55128 14.4367 8.71216L14.9318 4.875H15.5625C15.637 4.87605 15.711 4.86228 15.7802 4.83449C15.8493 4.80669 15.9123 4.76543 15.9654 4.71309C16.0185 4.66075 16.0606 4.59839 16.0894 4.52962C16.1181 4.46085 16.133 4.38705 16.133 4.3125C16.133 4.23795 16.1181 4.16415 16.0894 4.09538C16.0606 4.02661 16.0185 3.96425 15.9654 3.91191C15.9123 3.85957 15.8493 3.81831 15.7802 3.79051C15.711 3.76272 15.637 3.74895 15.5625 3.75H11.3994C11.298 2.5016 10.2731 1.5 8.99996 1.5ZM8.99996 2.625C9.66447 2.625 10.1819 3.11364 10.2751 3.75H7.72481C7.81798 3.11364 8.33544 2.625 8.99996 2.625ZM12.375 9C10.0968 9 8.24996 10.8469 8.24996 13.125C8.24996 15.4031 10.0968 17.25 12.375 17.25C14.6531 17.25 16.5 15.4031 16.5 13.125C16.5 10.8469 14.6531 9 12.375 9ZM14.25 10.875C14.2925 10.875 14.3347 10.8848 14.3752 10.8992C14.3896 10.9043 14.4031 10.912 14.4169 10.9189C14.4517 10.9365 14.4861 10.9558 14.5151 10.9849C14.5459 11.0157 14.5668 11.0524 14.5847 11.0896C14.5898 11.1004 14.596 11.1107 14.6001 11.1218C14.6304 11.2048 14.631 11.2952 14.6008 11.3782C14.5963 11.3904 14.589 11.4015 14.5832 11.4133C14.5655 11.4495 14.5452 11.4851 14.5151 11.5151L12.9052 13.125C13.7284 13.9478 14.4821 14.7019 14.5151 14.7349C14.5446 14.7644 14.5641 14.7998 14.5817 14.8352C14.5882 14.8482 14.596 14.8605 14.6008 14.874C14.6155 14.915 14.625 14.957 14.625 15C14.625 15.0425 14.6152 15.0847 14.6008 15.1252C14.5957 15.1397 14.588 15.1532 14.581 15.167C14.5635 15.2018 14.5442 15.2361 14.5151 15.2651C14.4843 15.296 14.4475 15.3169 14.4104 15.3347C14.3996 15.3399 14.3892 15.346 14.3781 15.3501C14.2952 15.3805 14.2047 15.381 14.1218 15.3508C14.1095 15.3464 14.0984 15.339 14.0866 15.3333C14.0504 15.3155 14.0149 15.2953 13.9848 15.2651L12.375 13.6553L10.7651 15.2651C10.7356 15.2947 10.7002 15.3142 10.6648 15.3318C10.6518 15.3382 10.6394 15.346 10.6259 15.3508C10.585 15.3655 10.5429 15.375 10.5 15.375C10.4574 15.375 10.4152 15.3652 10.3747 15.3508C10.3603 15.3457 10.3468 15.338 10.333 15.3311C10.2982 15.3135 10.2638 15.2942 10.2348 15.2651C10.204 15.2343 10.1831 15.1976 10.1652 15.1604C10.1601 15.1496 10.1539 15.1393 10.1499 15.1282C10.1195 15.0452 10.1189 14.9548 10.1491 14.8718C10.1536 14.8596 10.1609 14.8485 10.1667 14.8367C10.1845 14.8005 10.2047 14.7649 10.2348 14.7349C10.2678 14.7019 11.0216 13.9478 11.8447 13.125L10.2348 11.5151C10.2053 11.4856 10.1858 11.4502 10.1682 11.4148C10.1618 11.4018 10.1539 11.3895 10.1491 11.376C10.1344 11.335 10.125 11.293 10.125 11.25C10.125 11.2075 10.1347 11.1653 10.1491 11.1248C10.1543 11.1103 10.162 11.0968 10.1689 11.083C10.1865 11.0482 10.2057 11.0139 10.2348 10.9849C10.2699 10.9498 10.3112 10.9241 10.3542 10.9058C10.3609 10.9029 10.3679 10.9016 10.3747 10.8992C10.4105 10.8864 10.4471 10.8795 10.4846 10.8779C10.4929 10.8776 10.5012 10.8763 10.5095 10.8765C10.552 10.8776 10.5945 10.8852 10.6347 10.9006C10.6416 10.9033 10.6477 10.9078 10.6545 10.9109C10.6942 10.929 10.7324 10.9521 10.7651 10.9849C10.7981 11.0179 11.5522 11.7716 12.375 12.5947L13.9848 10.9849C14.0144 10.9553 14.0497 10.9358 14.0852 10.9182C14.0981 10.9118 14.1105 10.904 14.124 10.8992C14.1649 10.8845 14.207 10.875 14.25 10.875Z" fill="#FF5E54"/>
</svg>
