<svg width="18" height="18" viewBox="0 0 18 18" fill="none" xmlns="http://www.w3.org/2000/svg">
<path d="M13.5 1.87891C12.827 1.87891 12.1541 2.13405 11.644 2.64429L3.34351 10.9441C3.18602 11.1016 3.07068 11.2974 3.00953 11.5125L1.89698 15.4082C1.86954 15.5046 1.86836 15.6066 1.89355 15.7036C1.91874 15.8006 1.96939 15.8891 2.04026 15.96C2.11113 16.0309 2.19965 16.0815 2.29666 16.1067C2.39367 16.1319 2.49565 16.1307 2.59205 16.1033L6.48853 14.9907C6.48878 14.9905 6.48902 14.9902 6.48926 14.99C6.70283 14.9286 6.89821 14.8147 7.05616 14.6567L15.356 6.3562C16.3764 5.33578 16.3764 3.66471 15.356 2.64429C14.846 2.13405 14.173 1.87891 13.5 1.87891ZM13.5 2.99731C13.8828 2.99731 14.2651 3.14481 14.5598 3.4397C14.5601 3.4397 14.5603 3.4397 14.5606 3.4397C15.1511 4.03028 15.1511 4.97021 14.5606 5.56079L13.8333 6.28809L11.7122 4.16699L12.4395 3.4397C12.7342 3.14481 13.1172 2.99731 13.5 2.99731ZM10.9168 4.9624L13.0378 7.0835L6.26002 13.8613C6.23803 13.8832 6.21018 13.8999 6.17872 13.9089L3.25635 14.7439L4.09131 11.8208C4.09131 11.8206 4.09131 11.8203 4.09131 11.8201C4.09991 11.7898 4.11566 11.7628 4.13892 11.7395L10.9168 4.9624Z" fill="#53B051"/>
</svg>
