<svg width="24" height="24" viewBox="0 0 24 24" fill="none" xmlns="http://www.w3.org/2000/svg">
<path d="M11.9999 2.3999C6.70753 2.3999 2.3999 6.70753 2.3999 11.9999C2.3999 17.2923 6.70753 21.5999 11.9999 21.5999C17.2923 21.5999 21.5999 17.2923 21.5999 11.9999C21.5999 11.7877 21.5156 11.5843 21.3655 11.4343L21.2468 11.3171C21.229 11.2974 21.2102 11.2786 21.1905 11.2608L12.7952 2.86396C12.7463 2.79691 12.6873 2.73787 12.6202 2.68896L12.5655 2.63428C12.4155 2.48425 12.2121 2.39994 11.9999 2.3999ZM11.2358 4.09678C11.2155 4.3289 11.1999 4.56305 11.1999 4.7999C11.1999 5.08633 11.2157 5.36957 11.2452 5.64834C8.06701 6.02236 5.5999 8.72124 5.5999 11.9999C5.5999 15.5343 8.4655 18.3999 11.9999 18.3999C15.2786 18.3999 17.9774 15.9328 18.3515 12.7546C18.6302 12.7841 18.9135 12.7999 19.1999 12.7999C19.4368 12.7999 19.6709 12.7843 19.903 12.764C19.5146 16.8232 16.1631 19.9999 11.9999 19.9999C7.57228 19.9999 3.9999 16.4275 3.9999 11.9999C3.9999 7.8367 7.17661 4.48525 11.2358 4.09678ZM12.8171 5.14834L18.8515 11.1827C15.5871 11.008 12.9918 8.41271 12.8171 5.14834Z" fill="white"/>
</svg>
