<svg width="18" height="18" viewBox="0 0 18 18" fill="none" xmlns="http://www.w3.org/2000/svg">
<path d="M8.0625 1.12506C7.98796 1.124 7.91396 1.13777 7.84479 1.16557C7.77562 1.19336 7.71266 1.23463 7.65958 1.28697C7.6065 1.3393 7.56435 1.40167 7.53557 1.47044C7.5068 1.53921 7.49199 1.61301 7.49199 1.68756C7.49199 1.7621 7.5068 1.8359 7.53557 1.90467C7.56435 1.97344 7.6065 2.03581 7.65958 2.08815C7.71266 2.14048 7.77562 2.18175 7.84479 2.20954C7.91396 2.23734 7.98796 2.25111 8.0625 2.25006H8.4375V3.02862C4.97887 3.31608 2.25 6.21861 2.25 9.75006C2.25 13.4713 5.27874 16.5001 9 16.5001C12.7213 16.5001 15.75 13.4713 15.75 9.75006C15.75 8.09151 15.1461 6.57312 14.1497 5.39654L14.8337 4.71173C14.9149 4.63269 14.9703 4.531 14.9927 4.41996C15.0151 4.30892 15.0034 4.19371 14.9593 4.08939C14.9151 3.98508 14.8405 3.89653 14.7452 3.83533C14.6499 3.77413 14.5383 3.74313 14.425 3.74639C14.279 3.75065 14.1403 3.81159 14.0383 3.91632L13.3535 4.6004C12.3116 3.718 11.0009 3.14817 9.5625 3.02862V2.25006H9.9375C10.012 2.25111 10.086 2.23734 10.1552 2.20954C10.2244 2.18175 10.2873 2.14048 10.3404 2.08815C10.3935 2.03581 10.4357 1.97344 10.4644 1.90467C10.4932 1.8359 10.508 1.7621 10.508 1.68756C10.508 1.61301 10.4932 1.53921 10.4644 1.47044C10.4357 1.40167 10.3935 1.3393 10.3404 1.28697C10.2873 1.23463 10.2244 1.19336 10.1552 1.16557C10.086 1.13777 10.012 1.124 9.9375 1.12506H8.0625ZM8.93335 4.12872C8.97859 4.13424 9.02434 4.13424 9.06958 4.12872C10.5825 4.14714 11.9486 4.75699 12.9478 5.74078C12.966 5.762 12.9859 5.78183 13.0071 5.8001C14.0074 6.81487 14.625 8.20802 14.625 9.75006C14.625 12.8633 12.1133 15.3751 9 15.3751C5.88673 15.3751 3.375 12.8633 3.375 9.75006C3.375 6.6593 5.85132 4.16467 8.93335 4.12872ZM11.4265 6.74493C11.2804 6.74919 11.1417 6.81013 11.0398 6.91485L9.29004 8.66461C9.19549 8.63885 9.09799 8.62555 9 8.62506C8.70163 8.62506 8.41548 8.74358 8.2045 8.95456C7.99353 9.16554 7.875 9.45169 7.875 9.75006C7.875 10.0484 7.99353 10.3346 8.2045 10.5456C8.41548 10.7565 8.70163 10.8751 9 10.8751C9.17248 10.875 9.34262 10.8352 9.49729 10.7589C9.65195 10.6826 9.787 10.5717 9.89198 10.4348C9.99697 10.298 10.0691 10.1388 10.1028 9.96969C10.1364 9.80053 10.1308 9.6259 10.0862 9.45928L11.8352 7.71026C11.9164 7.63123 11.9718 7.52954 11.9942 7.4185C12.0166 7.30746 12.0049 7.19224 11.9608 7.08793C11.9166 6.98362 11.842 6.89506 11.7466 6.83387C11.6513 6.77267 11.5397 6.74167 11.4265 6.74493Z" fill="#231F20"/>
</svg>
